<mxfile host="app.diagrams.net" modified="2021-12-07T09:11:57.397Z" agent="5.0 (Windows NT 10.0; Win64; x64) AppleWebKit/537.36 (KHTML, like Gecko) Chrome/96.0.4664.45 Safari/537.36" etag="aq37-FFoWDC0EPqZxgZO" version="15.9.1" type="github">
  <diagram id="U9YUFdOewFuoNrLno5C7" name="Page-1">
    <mxGraphModel dx="1240" dy="1812" grid="1" gridSize="10" guides="1" tooltips="1" connect="1" arrows="1" fold="1" page="1" pageScale="1" pageWidth="827" pageHeight="1169" math="0" shadow="0">
      <root>
        <mxCell id="0" />
        <mxCell id="1" parent="0" />
        <mxCell id="TM5iR6sep-qzJjjhXm-r-1" value="Обучающийся" style="shape=umlActor;verticalLabelPosition=bottom;verticalAlign=top;html=1;outlineConnect=0;strokeWidth=1;" parent="1" vertex="1">
          <mxGeometry x="130" y="30" width="30" height="60" as="geometry" />
        </mxCell>
        <mxCell id="rDwhiOrbKTiJnj6Wi6EF-13" value="" style="edgeStyle=orthogonalEdgeStyle;rounded=1;orthogonalLoop=1;jettySize=auto;html=1;endArrow=none;endFill=0;entryX=0;entryY=1;entryDx=0;entryDy=0;" edge="1" parent="1" target="TM5iR6sep-qzJjjhXm-r-4">
          <mxGeometry relative="1" as="geometry">
            <mxPoint x="205" y="380" as="sourcePoint" />
            <mxPoint x="205" y="320" as="targetPoint" />
            <Array as="points">
              <mxPoint x="205" y="110" />
              <mxPoint x="368" y="110" />
            </Array>
          </mxGeometry>
        </mxCell>
        <mxCell id="TM5iR6sep-qzJjjhXm-r-2" value="Администратор" style="shape=umlActor;verticalLabelPosition=bottom;verticalAlign=top;html=1;outlineConnect=0;strokeWidth=1;" parent="1" vertex="1">
          <mxGeometry x="190" y="400" width="30" height="60" as="geometry" />
        </mxCell>
        <mxCell id="TM5iR6sep-qzJjjhXm-r-4" value="Просмотр расписания" style="ellipse;whiteSpace=wrap;html=1;strokeWidth=1;" parent="1" vertex="1">
          <mxGeometry x="350" y="20" width="120" height="80" as="geometry" />
        </mxCell>
        <mxCell id="TM5iR6sep-qzJjjhXm-r-10" value="Узнать преподвателя" style="ellipse;whiteSpace=wrap;html=1;strokeWidth=1;" parent="1" vertex="1">
          <mxGeometry x="230" y="-110" width="120" height="80" as="geometry" />
        </mxCell>
        <mxCell id="TM5iR6sep-qzJjjhXm-r-11" value="Узнать предмет" style="ellipse;whiteSpace=wrap;html=1;strokeWidth=1;" parent="1" vertex="1">
          <mxGeometry x="470" y="-110" width="120" height="80" as="geometry" />
        </mxCell>
        <mxCell id="TM5iR6sep-qzJjjhXm-r-12" value="" style="endArrow=block;html=1;rounded=0;endFill=0;entryX=1;entryY=0;entryDx=0;entryDy=0;strokeWidth=1;" parent="1" target="TM5iR6sep-qzJjjhXm-r-4" edge="1">
          <mxGeometry width="50" height="50" relative="1" as="geometry">
            <mxPoint x="490" y="-30" as="sourcePoint" />
            <mxPoint x="500.5" y="90" as="targetPoint" />
          </mxGeometry>
        </mxCell>
        <mxCell id="TM5iR6sep-qzJjjhXm-r-13" value="" style="endArrow=block;html=1;rounded=0;endFill=0;entryX=0;entryY=0;entryDx=0;entryDy=0;strokeWidth=1;" parent="1" target="TM5iR6sep-qzJjjhXm-r-4" edge="1">
          <mxGeometry width="50" height="50" relative="1" as="geometry">
            <mxPoint x="330" y="-30" as="sourcePoint" />
            <mxPoint x="399.9964068711929" y="110.00427124746201" as="targetPoint" />
          </mxGeometry>
        </mxCell>
        <mxCell id="TM5iR6sep-qzJjjhXm-r-15" value="Узнать время начала и окончания урока" style="ellipse;whiteSpace=wrap;html=1;strokeWidth=1;" parent="1" vertex="1">
          <mxGeometry x="550" y="15" width="140" height="90" as="geometry" />
        </mxCell>
        <mxCell id="TM5iR6sep-qzJjjhXm-r-16" value="" style="endArrow=block;html=1;rounded=0;endFill=0;entryX=1;entryY=0.5;entryDx=0;entryDy=0;strokeWidth=1;exitX=0;exitY=0.5;exitDx=0;exitDy=0;" parent="1" target="TM5iR6sep-qzJjjhXm-r-4" edge="1" source="TM5iR6sep-qzJjjhXm-r-15">
          <mxGeometry width="50" height="50" relative="1" as="geometry">
            <mxPoint x="280" y="60" as="sourcePoint" />
            <mxPoint x="377.57359312880703" y="98.2842712474619" as="targetPoint" />
          </mxGeometry>
        </mxCell>
        <mxCell id="TM5iR6sep-qzJjjhXm-r-17" value="" style="endArrow=none;html=1;strokeWidth=1;exitX=0;exitY=1;exitDx=0;exitDy=0;rounded=1;" parent="1" source="TM5iR6sep-qzJjjhXm-r-18" edge="1">
          <mxGeometry width="50" height="50" relative="1" as="geometry">
            <mxPoint x="140" y="330" as="sourcePoint" />
            <mxPoint x="210" y="390" as="targetPoint" />
            <Array as="points" />
          </mxGeometry>
        </mxCell>
        <mxCell id="TM5iR6sep-qzJjjhXm-r-18" value="Отправка сообщения об изменении в расписании" style="ellipse;whiteSpace=wrap;html=1;strokeWidth=1;" parent="1" vertex="1">
          <mxGeometry x="327" y="140" width="120" height="80" as="geometry" />
        </mxCell>
        <mxCell id="TM5iR6sep-qzJjjhXm-r-32" value="&lt;font face=&quot;Helvetica&quot;&gt;Создать список преподвателей&lt;/font&gt;" style="ellipse;whiteSpace=wrap;html=1;fontFamily=Times New Roman;strokeWidth=1;" parent="1" vertex="1">
          <mxGeometry x="335" y="390" width="120" height="80" as="geometry" />
        </mxCell>
        <mxCell id="TM5iR6sep-qzJjjhXm-r-33" value="" style="endArrow=none;html=1;rounded=0;fontFamily=Times New Roman;strokeWidth=1;entryX=0;entryY=0.5;entryDx=0;entryDy=0;" parent="1" target="TM5iR6sep-qzJjjhXm-r-32" edge="1">
          <mxGeometry width="50" height="50" relative="1" as="geometry">
            <mxPoint x="240" y="430" as="sourcePoint" />
            <mxPoint x="335" y="429.5" as="targetPoint" />
          </mxGeometry>
        </mxCell>
        <mxCell id="TM5iR6sep-qzJjjhXm-r-35" value="&lt;font style=&quot;font-size: 12px&quot;&gt;Добавить ФИО&lt;/font&gt;" style="ellipse;whiteSpace=wrap;html=1;fontFamily=Helvetica;fontSize=14;strokeWidth=1;" parent="1" vertex="1">
          <mxGeometry x="335" y="260" width="120" height="80" as="geometry" />
        </mxCell>
        <mxCell id="TM5iR6sep-qzJjjhXm-r-36" value="&lt;font style=&quot;font-size: 12px&quot;&gt;Добавить предмет&lt;/font&gt;" style="ellipse;whiteSpace=wrap;html=1;fontFamily=Helvetica;fontSize=14;strokeWidth=1;" parent="1" vertex="1">
          <mxGeometry x="485" y="260" width="120" height="80" as="geometry" />
        </mxCell>
        <mxCell id="TM5iR6sep-qzJjjhXm-r-37" value="" style="endArrow=classic;html=1;rounded=0;fontFamily=Helvetica;fontSize=12;strokeWidth=1;entryX=0.5;entryY=1;entryDx=0;entryDy=0;exitX=0.5;exitY=0;exitDx=0;exitDy=0;dashed=1;" parent="1" source="TM5iR6sep-qzJjjhXm-r-32" target="TM5iR6sep-qzJjjhXm-r-35" edge="1">
          <mxGeometry width="50" height="50" relative="1" as="geometry">
            <mxPoint x="235" y="350" as="sourcePoint" />
            <mxPoint x="285" y="300" as="targetPoint" />
          </mxGeometry>
        </mxCell>
        <mxCell id="TM5iR6sep-qzJjjhXm-r-38" value="" style="endArrow=classic;html=1;rounded=0;fontFamily=Helvetica;fontSize=12;strokeWidth=1;exitX=1;exitY=0;exitDx=0;exitDy=0;dashed=1;" parent="1" source="TM5iR6sep-qzJjjhXm-r-32" target="TM5iR6sep-qzJjjhXm-r-36" edge="1">
          <mxGeometry width="50" height="50" relative="1" as="geometry">
            <mxPoint x="405" y="400" as="sourcePoint" />
            <mxPoint x="405" y="350" as="targetPoint" />
          </mxGeometry>
        </mxCell>
        <mxCell id="TM5iR6sep-qzJjjhXm-r-39" value="&lt;h3&gt;&lt;font style=&quot;font-weight: normal ; font-size: 12px&quot;&gt;&quot;include&quot;&lt;/font&gt;&lt;/h3&gt;" style="text;html=1;align=center;verticalAlign=middle;resizable=0;points=[];autosize=1;strokeColor=none;fillColor=none;rotation=0;strokeWidth=1;" parent="1" vertex="1">
          <mxGeometry x="330" y="340" width="60" height="50" as="geometry" />
        </mxCell>
        <mxCell id="TM5iR6sep-qzJjjhXm-r-40" value="&lt;h3&gt;&lt;font style=&quot;font-weight: normal ; font-size: 12px&quot;&gt;&quot;include&quot;&lt;/font&gt;&lt;/h3&gt;" style="text;html=1;align=center;verticalAlign=middle;resizable=0;points=[];autosize=1;strokeColor=none;fillColor=none;rotation=0;strokeWidth=1;" parent="1" vertex="1">
          <mxGeometry x="470" y="360" width="60" height="50" as="geometry" />
        </mxCell>
        <mxCell id="TM5iR6sep-qzJjjhXm-r-41" value="Добавить предмет" style="ellipse;whiteSpace=wrap;html=1;fontFamily=Helvetica;fontSize=12;strokeWidth=1;" parent="1" vertex="1">
          <mxGeometry x="335" y="520" width="120" height="80" as="geometry" />
        </mxCell>
        <mxCell id="TM5iR6sep-qzJjjhXm-r-45" value="" style="edgeStyle=orthogonalEdgeStyle;rounded=0;orthogonalLoop=1;jettySize=auto;html=1;fontFamily=Helvetica;fontSize=12;startArrow=none;startFill=0;endArrow=classic;endFill=1;strokeWidth=1;dashed=1;" parent="1" source="TM5iR6sep-qzJjjhXm-r-44" target="TM5iR6sep-qzJjjhXm-r-41" edge="1">
          <mxGeometry relative="1" as="geometry" />
        </mxCell>
        <mxCell id="TM5iR6sep-qzJjjhXm-r-44" value="Добавить название предмета" style="ellipse;whiteSpace=wrap;html=1;fontFamily=Helvetica;fontSize=12;strokeWidth=1;" parent="1" vertex="1">
          <mxGeometry x="335" y="650" width="120" height="80" as="geometry" />
        </mxCell>
        <mxCell id="TM5iR6sep-qzJjjhXm-r-46" value="&lt;h3&gt;&lt;font style=&quot;font-weight: normal ; font-size: 12px&quot;&gt;&quot;include&quot;&lt;/font&gt;&lt;/h3&gt;" style="text;html=1;align=center;verticalAlign=middle;resizable=0;points=[];autosize=1;strokeColor=none;fillColor=none;rotation=0;strokeWidth=1;" parent="1" vertex="1">
          <mxGeometry x="395" y="600" width="60" height="50" as="geometry" />
        </mxCell>
        <mxCell id="TM5iR6sep-qzJjjhXm-r-53" value="Редактировать список преподавателей" style="ellipse;whiteSpace=wrap;html=1;fontFamily=Helvetica;fontSize=12;strokeWidth=1;" parent="1" vertex="1">
          <mxGeometry x="585" y="390" width="120" height="80" as="geometry" />
        </mxCell>
        <mxCell id="TM5iR6sep-qzJjjhXm-r-54" value="Удалить предователя" style="ellipse;whiteSpace=wrap;html=1;fontFamily=Helvetica;fontSize=12;strokeWidth=1;" parent="1" vertex="1">
          <mxGeometry x="810" y="390" width="120" height="80" as="geometry" />
        </mxCell>
        <mxCell id="TM5iR6sep-qzJjjhXm-r-55" value="" style="endArrow=block;html=1;rounded=0;fontFamily=Helvetica;fontSize=12;strokeWidth=1;entryX=1;entryY=0.5;entryDx=0;entryDy=0;exitX=0;exitY=0.5;exitDx=0;exitDy=0;endFill=0;" parent="1" source="TM5iR6sep-qzJjjhXm-r-53" target="TM5iR6sep-qzJjjhXm-r-32" edge="1">
          <mxGeometry width="50" height="50" relative="1" as="geometry">
            <mxPoint x="215" y="530" as="sourcePoint" />
            <mxPoint x="265" y="480" as="targetPoint" />
          </mxGeometry>
        </mxCell>
        <mxCell id="TM5iR6sep-qzJjjhXm-r-56" value="" style="endArrow=classic;html=1;rounded=0;fontFamily=Helvetica;fontSize=12;strokeWidth=1;entryX=1;entryY=0.5;entryDx=0;entryDy=0;exitX=0;exitY=0.5;exitDx=0;exitDy=0;dashed=1;" parent="1" source="TM5iR6sep-qzJjjhXm-r-54" target="TM5iR6sep-qzJjjhXm-r-53" edge="1">
          <mxGeometry width="50" height="50" relative="1" as="geometry">
            <mxPoint x="655" y="480" as="sourcePoint" />
            <mxPoint x="455" y="470" as="targetPoint" />
          </mxGeometry>
        </mxCell>
        <mxCell id="TM5iR6sep-qzJjjhXm-r-57" value="&lt;h3&gt;&lt;font style=&quot;font-weight: normal ; font-size: 12px&quot;&gt;&quot;extend&quot;&lt;/font&gt;&lt;/h3&gt;" style="text;html=1;align=center;verticalAlign=middle;resizable=0;points=[];autosize=1;strokeColor=none;fillColor=none;rotation=0;strokeWidth=1;" parent="1" vertex="1">
          <mxGeometry x="730" y="390" width="60" height="50" as="geometry" />
        </mxCell>
        <mxCell id="TM5iR6sep-qzJjjhXm-r-63" value="" style="edgeStyle=orthogonalEdgeStyle;rounded=0;orthogonalLoop=1;jettySize=auto;html=1;fontFamily=Helvetica;fontSize=12;startArrow=none;startFill=0;endArrow=block;endFill=0;strokeWidth=1;" parent="1" source="TM5iR6sep-qzJjjhXm-r-62" target="TM5iR6sep-qzJjjhXm-r-41" edge="1">
          <mxGeometry relative="1" as="geometry" />
        </mxCell>
        <mxCell id="TM5iR6sep-qzJjjhXm-r-62" value="Редактировать список предметов" style="ellipse;whiteSpace=wrap;html=1;fontFamily=Helvetica;fontSize=12;strokeWidth=1;" parent="1" vertex="1">
          <mxGeometry x="520" y="520" width="120" height="80" as="geometry" />
        </mxCell>
        <mxCell id="TM5iR6sep-qzJjjhXm-r-65" value="" style="edgeStyle=orthogonalEdgeStyle;rounded=0;orthogonalLoop=1;jettySize=auto;html=1;fontFamily=Helvetica;fontSize=12;startArrow=none;startFill=0;endArrow=classic;endFill=1;strokeWidth=1;dashed=1;" parent="1" source="TM5iR6sep-qzJjjhXm-r-64" target="TM5iR6sep-qzJjjhXm-r-62" edge="1">
          <mxGeometry relative="1" as="geometry" />
        </mxCell>
        <mxCell id="TM5iR6sep-qzJjjhXm-r-64" value="Удалить предмет" style="ellipse;whiteSpace=wrap;html=1;fontFamily=Helvetica;fontSize=12;strokeWidth=1;" parent="1" vertex="1">
          <mxGeometry x="520" y="650" width="120" height="80" as="geometry" />
        </mxCell>
        <mxCell id="TM5iR6sep-qzJjjhXm-r-66" value="&lt;h3&gt;&lt;font style=&quot;font-weight: normal ; font-size: 12px&quot;&gt;&quot;extend&quot;&lt;/font&gt;&lt;/h3&gt;" style="text;html=1;align=center;verticalAlign=middle;resizable=0;points=[];autosize=1;strokeColor=none;fillColor=none;rotation=0;strokeWidth=1;" parent="1" vertex="1">
          <mxGeometry x="580" y="600" width="60" height="50" as="geometry" />
        </mxCell>
        <mxCell id="rDwhiOrbKTiJnj6Wi6EF-7" value="" style="group" vertex="1" connectable="0" parent="1">
          <mxGeometry x="335" y="750" width="375" height="410" as="geometry" />
        </mxCell>
        <mxCell id="TM5iR6sep-qzJjjhXm-r-19" value="Составить расписание" style="ellipse;whiteSpace=wrap;html=1;strokeWidth=1;" parent="rDwhiOrbKTiJnj6Wi6EF-7" vertex="1">
          <mxGeometry y="180" width="120" height="80" as="geometry" />
        </mxCell>
        <mxCell id="TM5iR6sep-qzJjjhXm-r-20" value="Выбрать время начала и &lt;br&gt;окончания&lt;span style=&quot;color: rgba(0 , 0 , 0 , 0) ; font-family: monospace ; font-size: 0px&quot;&gt;%3CmxGraphModel%3E%3Croot%3E%3CmxCell%20id%3D%220%22%2F%3E%3CmxCell%20id%3D%221%22%20parent%3D%220%22%2F%3E%3CmxCell%20id%3D%222%22%20value%3D%22%D0%9F%D1%80%D0%BE%D1%81%D0%BC%D0%BE%D1%82%D1%80%20%D1%80%D0%B0%D1%81%D0%BF%D0%B8%D1%81%D0%B0%D0%BD%D0%B8%D1%8F%22%20style%3D%22ellipse%3BwhiteSpace%3Dwrap%3Bhtml%3D1%3B%22%20vertex%3D%221%22%20parent%3D%221%22%3E%3CmxGeometry%20x%3D%22310%22%20y%3D%2260%22%20width%3D%22120%22%20height%3D%2280%22%20as%3D%22geometry%22%2F%3E%3C%2FmxCell%3E%3C%2Froot%3E%3C%2FmxGraphModel%3E&lt;/span&gt;" style="ellipse;whiteSpace=wrap;html=1;strokeWidth=1;" parent="rDwhiOrbKTiJnj6Wi6EF-7" vertex="1">
          <mxGeometry x="255" y="230" width="120" height="80" as="geometry" />
        </mxCell>
        <mxCell id="TM5iR6sep-qzJjjhXm-r-21" value="Выбрать преподвателя&lt;span style=&quot;color: rgba(0 , 0 , 0 , 0) ; font-family: monospace ; font-size: 0px&quot;&gt;%3CmxGraphModel%3E%3Croot%3E%3CmxCell%20id%3D%220%22%2F%3E%3CmxCell%20id%3D%221%22%20parent%3D%220%22%2F%3E%3CmxCell%20id%3D%222%22%20value%3D%22%D0%9F%D1%80%D0%BE%D1%81%D0%BC%D0%BE%D1%82%D1%80%20%D1%80%D0%B0%D1%81%D0%BF%D0%B8%D1%81%D0%B0%D0%BD%D0%B8%D1%8F%22%20style%3D%22ellipse%3BwhiteSpace%3Dwrap%3Bhtml%3D1%3B%22%20vertex%3D%221%22%20parent%3D%221%22%3E%3CmxGeometry%20x%3D%22310%22%20y%3D%2260%22%20width%3D%22120%22%20height%3D%2280%22%20as%3D%22geometry%22%2F%3E%3C%2FmxCell%3E%3C%2Froot%3E%3C%2FmxGraphMod&lt;/span&gt;" style="ellipse;whiteSpace=wrap;html=1;strokeWidth=1;" parent="rDwhiOrbKTiJnj6Wi6EF-7" vertex="1">
          <mxGeometry y="330" width="120" height="80" as="geometry" />
        </mxCell>
        <mxCell id="TM5iR6sep-qzJjjhXm-r-22" value="Выбрать предмет&lt;span style=&quot;color: rgba(0 , 0 , 0 , 0) ; font-family: monospace ; font-size: 0px&quot;&gt;%3CmxGraphModel%3E%3Croot%3E%3CmxCell%20id%3D%220%22%2F%3E%3CmxCell%20id%3D%221%22%20parent%3D%220%22%2F%3E%3CmxCell%20id%3D%222%22%20value%3D%22%D0%9F%D1%80%D0%BE%D1%81%D0%BC%D0%BE%D1%82%D1%80%20%D1%80%D0%B0%D1%81%D0%BF%D0%B8%D1%81%D0%B0%D0%BD%D0%B8%D1%8F%22%20style%3D%22ellipse%3BwhiteSpace%3Dwrap%3Bhtml%3D1%3B%22%20vertex%3D%221%22%20parent%3D%221%22%3E%3CmxGeometry%20x%3D%22310%22%20y%3D%2260%22%20width%3D%22120%22%20height%3D%2280%22%20as%3D%22geometry%22%2F%3E%3C%2FmxCell%3E%3C%2Froot%3E%3C%2FmxGraphMod&lt;/span&gt;" style="ellipse;whiteSpace=wrap;html=1;strokeWidth=1;" parent="rDwhiOrbKTiJnj6Wi6EF-7" vertex="1">
          <mxGeometry x="195" y="330" width="120" height="80" as="geometry" />
        </mxCell>
        <mxCell id="TM5iR6sep-qzJjjhXm-r-47" value="Редактировать расписание" style="ellipse;whiteSpace=wrap;html=1;fontFamily=Helvetica;fontSize=12;strokeWidth=1;" parent="rDwhiOrbKTiJnj6Wi6EF-7" vertex="1">
          <mxGeometry width="120" height="80" as="geometry" />
        </mxCell>
        <mxCell id="TM5iR6sep-qzJjjhXm-r-48" value="" style="endArrow=block;html=1;rounded=0;fontFamily=Helvetica;fontSize=12;strokeWidth=1;exitX=0.5;exitY=1;exitDx=0;exitDy=0;endFill=0;" parent="rDwhiOrbKTiJnj6Wi6EF-7" source="TM5iR6sep-qzJjjhXm-r-47" target="TM5iR6sep-qzJjjhXm-r-19" edge="1">
          <mxGeometry width="50" height="50" relative="1" as="geometry">
            <mxPoint x="170" y="260" as="sourcePoint" />
            <mxPoint x="220" y="210" as="targetPoint" />
          </mxGeometry>
        </mxCell>
        <mxCell id="TM5iR6sep-qzJjjhXm-r-59" value="" style="edgeStyle=orthogonalEdgeStyle;rounded=0;orthogonalLoop=1;jettySize=auto;html=1;dashed=1;fontFamily=Helvetica;fontSize=12;startArrow=none;startFill=0;endArrow=classic;endFill=1;strokeWidth=1;entryX=1;entryY=0.5;entryDx=0;entryDy=0;" parent="rDwhiOrbKTiJnj6Wi6EF-7" source="TM5iR6sep-qzJjjhXm-r-49" target="TM5iR6sep-qzJjjhXm-r-47" edge="1">
          <mxGeometry relative="1" as="geometry">
            <mxPoint x="-90" y="40" as="targetPoint" />
            <Array as="points">
              <mxPoint x="155" y="40" />
              <mxPoint x="155" y="40" />
            </Array>
          </mxGeometry>
        </mxCell>
        <mxCell id="TM5iR6sep-qzJjjhXm-r-49" value="Удалить расписание" style="ellipse;whiteSpace=wrap;html=1;fontFamily=Helvetica;fontSize=12;strokeWidth=1;" parent="rDwhiOrbKTiJnj6Wi6EF-7" vertex="1">
          <mxGeometry x="225" width="120" height="80" as="geometry" />
        </mxCell>
        <mxCell id="TM5iR6sep-qzJjjhXm-r-50" value="Выбрать день недели" style="ellipse;whiteSpace=wrap;html=1;strokeWidth=1;" parent="rDwhiOrbKTiJnj6Wi6EF-7" vertex="1">
          <mxGeometry x="225" y="100" width="120" height="80" as="geometry" />
        </mxCell>
        <mxCell id="TM5iR6sep-qzJjjhXm-r-51" value="" style="endArrow=none;dashed=1;html=1;strokeWidth=1;rounded=0;endFill=0;startArrow=classic;startFill=1;entryX=0.97;entryY=0.255;entryDx=0;entryDy=0;exitX=0.06;exitY=0.72;exitDx=0;exitDy=0;entryPerimeter=0;exitPerimeter=0;" parent="rDwhiOrbKTiJnj6Wi6EF-7" target="TM5iR6sep-qzJjjhXm-r-19" edge="1" source="TM5iR6sep-qzJjjhXm-r-50">
          <mxGeometry width="50" height="50" relative="1" as="geometry">
            <mxPoint x="-90" y="130" as="sourcePoint" />
            <mxPoint x="10" y="230" as="targetPoint" />
          </mxGeometry>
        </mxCell>
        <mxCell id="TM5iR6sep-qzJjjhXm-r-60" value="&lt;h3&gt;&lt;font style=&quot;font-weight: normal ; font-size: 12px&quot;&gt;&quot;extend&quot;&lt;/font&gt;&lt;/h3&gt;" style="text;html=1;align=center;verticalAlign=middle;resizable=0;points=[];autosize=1;strokeColor=none;fillColor=none;rotation=0;strokeWidth=1;" parent="rDwhiOrbKTiJnj6Wi6EF-7" vertex="1">
          <mxGeometry x="142" width="60" height="50" as="geometry" />
        </mxCell>
        <mxCell id="rDwhiOrbKTiJnj6Wi6EF-4" value="" style="group" vertex="1" connectable="0" parent="rDwhiOrbKTiJnj6Wi6EF-7">
          <mxGeometry x="65" y="270" width="60" height="50" as="geometry" />
        </mxCell>
        <mxCell id="TM5iR6sep-qzJjjhXm-r-28" value="&lt;h3&gt;&lt;font style=&quot;font-weight: normal ; font-size: 12px&quot;&gt;&quot;include&quot;&lt;/font&gt;&lt;/h3&gt;" style="text;html=1;align=center;verticalAlign=middle;resizable=0;points=[];autosize=1;strokeColor=none;fillColor=none;rotation=0;strokeWidth=1;" parent="rDwhiOrbKTiJnj6Wi6EF-4" vertex="1">
          <mxGeometry width="60" height="50" as="geometry" />
        </mxCell>
        <mxCell id="TM5iR6sep-qzJjjhXm-r-27" value="&lt;h3&gt;&lt;font style=&quot;font-weight: normal ; font-size: 12px&quot;&gt;&quot;include&quot;&lt;/font&gt;&lt;/h3&gt;" style="text;html=1;align=center;verticalAlign=middle;resizable=0;points=[];autosize=1;strokeColor=none;fillColor=none;rotation=0;strokeWidth=1;" parent="rDwhiOrbKTiJnj6Wi6EF-7" vertex="1">
          <mxGeometry x="142" y="141" width="60" height="50" as="geometry" />
        </mxCell>
        <mxCell id="TM5iR6sep-qzJjjhXm-r-23" value="" style="endArrow=none;dashed=1;html=1;strokeWidth=1;rounded=0;endFill=0;startArrow=classic;startFill=1;entryX=1;entryY=1;entryDx=0;entryDy=0;" parent="rDwhiOrbKTiJnj6Wi6EF-7" source="TM5iR6sep-qzJjjhXm-r-22" target="TM5iR6sep-qzJjjhXm-r-19" edge="1">
          <mxGeometry width="50" height="50" relative="1" as="geometry">
            <mxPoint x="-90" y="220" as="sourcePoint" />
            <mxPoint x="-10" y="220" as="targetPoint" />
          </mxGeometry>
        </mxCell>
        <mxCell id="TM5iR6sep-qzJjjhXm-r-24" value="&lt;h3&gt;&lt;font style=&quot;font-weight: normal ; font-size: 12px&quot;&gt;&quot;include&quot;&lt;/font&gt;&lt;/h3&gt;" style="text;html=1;align=center;verticalAlign=middle;resizable=0;points=[];autosize=1;strokeColor=none;fillColor=none;strokeWidth=1;" parent="rDwhiOrbKTiJnj6Wi6EF-7" vertex="1">
          <mxGeometry x="135" y="301" width="60" height="50" as="geometry" />
        </mxCell>
        <mxCell id="rDwhiOrbKTiJnj6Wi6EF-5" value="" style="endArrow=none;dashed=1;html=1;strokeWidth=1;rounded=0;endFill=0;startArrow=classic;startFill=1;entryX=1;entryY=0.5;entryDx=0;entryDy=0;exitX=0.036;exitY=0.345;exitDx=0;exitDy=0;exitPerimeter=0;" edge="1" parent="rDwhiOrbKTiJnj6Wi6EF-7" source="TM5iR6sep-qzJjjhXm-r-20" target="TM5iR6sep-qzJjjhXm-r-19">
          <mxGeometry width="50" height="50" relative="1" as="geometry">
            <mxPoint x="226.64235164750153" y="349.24150839658114" as="sourcePoint" />
            <mxPoint x="112.42640687119274" y="258.2842712474617" as="targetPoint" />
          </mxGeometry>
        </mxCell>
        <mxCell id="rDwhiOrbKTiJnj6Wi6EF-6" value="&lt;h3&gt;&lt;font style=&quot;font-weight: normal ; font-size: 12px&quot;&gt;&quot;include&quot;&lt;/font&gt;&lt;/h3&gt;" style="text;html=1;align=center;verticalAlign=middle;resizable=0;points=[];autosize=1;strokeColor=none;fillColor=none;rotation=0;strokeWidth=1;" vertex="1" parent="rDwhiOrbKTiJnj6Wi6EF-7">
          <mxGeometry x="185" y="195" width="60" height="50" as="geometry" />
        </mxCell>
        <mxCell id="TM5iR6sep-qzJjjhXm-r-31" value="" style="endArrow=none;dashed=1;html=1;strokeWidth=1;rounded=0;endFill=0;startArrow=classic;startFill=1;exitX=0.5;exitY=0;exitDx=0;exitDy=0;entryX=0.5;entryY=1;entryDx=0;entryDy=0;" parent="rDwhiOrbKTiJnj6Wi6EF-7" source="TM5iR6sep-qzJjjhXm-r-21" target="TM5iR6sep-qzJjjhXm-r-19" edge="1">
          <mxGeometry width="50" height="50" relative="1" as="geometry">
            <mxPoint x="536.6185012239519" y="1080.1871914603407" as="sourcePoint" />
            <mxPoint x="625" y="1019" as="targetPoint" />
          </mxGeometry>
        </mxCell>
        <mxCell id="rDwhiOrbKTiJnj6Wi6EF-8" value="" style="endArrow=none;html=1;rounded=0;endFill=0;entryX=0;entryY=0;entryDx=0;entryDy=0;" edge="1" parent="1" target="TM5iR6sep-qzJjjhXm-r-41">
          <mxGeometry width="50" height="50" relative="1" as="geometry">
            <mxPoint x="250" y="470" as="sourcePoint" />
            <mxPoint x="470" y="680" as="targetPoint" />
          </mxGeometry>
        </mxCell>
        <mxCell id="rDwhiOrbKTiJnj6Wi6EF-9" value="" style="endArrow=none;html=1;rounded=0;exitX=0;exitY=0;exitDx=0;exitDy=0;" edge="1" parent="1" source="TM5iR6sep-qzJjjhXm-r-47">
          <mxGeometry width="50" height="50" relative="1" as="geometry">
            <mxPoint x="420" y="730" as="sourcePoint" />
            <mxPoint x="210" y="480" as="targetPoint" />
          </mxGeometry>
        </mxCell>
        <mxCell id="rDwhiOrbKTiJnj6Wi6EF-10" value="" style="endArrow=none;html=1;rounded=1;entryX=0;entryY=0.5;entryDx=0;entryDy=0;" edge="1" parent="1" target="TM5iR6sep-qzJjjhXm-r-4">
          <mxGeometry width="50" height="50" relative="1" as="geometry">
            <mxPoint x="170" y="60" as="sourcePoint" />
            <mxPoint x="610" y="-100" as="targetPoint" />
          </mxGeometry>
        </mxCell>
      </root>
    </mxGraphModel>
  </diagram>
</mxfile>
